<svg width="687.143" height="405.003" viewBox="0 0 687.143 405.003" xmlns="http://www.w3.org/2000/svg"><g id="svgGroup" stroke-linecap="round" fill-rule="evenodd" font-size="9pt" stroke="#000" stroke-width="0.25mm" fill="#000" style="stroke:#000;stroke-width:0.25mm;fill:#000"><path d="M 575.5 73.003 L 489.5 177.003 L 605 330.003 Q 626.5 360.503 647 381.003 L 686 385.003 Q 688 393.503 686.5 403.503 Q 616.32 402.1 596.049 402.009 A 576.527 576.527 0 0 0 593.5 402.003 Q 560.402 402.003 538.907 403.604 A 343.627 343.627 0 0 0 534 404.003 Q 531.256 396.228 533.114 387.615 A 36.978 36.978 0 0 1 533.5 386.003 L 574.5 379.003 A 60.389 60.389 0 0 0 571.881 374.245 Q 564.187 361.347 539 326.003 L 455 210.503 L 426.5 210.503 L 426.5 381.503 L 467 386.503 A 29.206 29.206 0 0 1 467.835 391.265 Q 468.405 397.252 467.008 404.96 A 75.645 75.645 0 0 1 467 405.003 Q 435.5 403.503 398.5 403.503 Q 374.348 403.503 338.193 404.303 A 5187.396 5187.396 0 0 0 329.5 404.503 A 28.343 28.343 0 0 1 328 395.644 Q 327.977 391.091 329.488 386.538 A 31.727 31.727 0 0 1 329.5 386.503 L 371 380.503 Q 372.964 361.848 372.999 323.429 A 1538.344 1538.344 0 0 0 373 322.003 L 373 27.503 L 332.5 22.503 A 29.206 29.206 0 0 1 331.665 17.742 Q 331.094 11.738 332.5 4.003 Q 360 6.003 401 6.003 A 1600.014 1600.014 0 0 0 445.062 5.417 A 1345.399 1345.399 0 0 0 470 4.503 A 28.343 28.343 0 0 1 471.5 13.363 Q 471.523 17.915 470.012 22.468 A 31.727 31.727 0 0 1 470 22.503 L 428.5 28.503 Q 426.536 47.159 426.501 85.578 A 1538.344 1538.344 0 0 0 426.5 87.003 L 426.5 185.003 L 453 185.003 L 579.5 27.503 L 539 22.503 A 29.206 29.206 0 0 1 538.165 17.742 Q 537.594 11.738 539 4.003 Q 566.5 6.003 596.5 6.003 Q 622.5 6.003 654.5 4.503 A 28.343 28.343 0 0 1 656 13.363 Q 656.023 17.915 654.512 22.468 A 31.727 31.727 0 0 1 654.5 22.503 L 621 28.503 A 281.204 281.204 0 0 0 595.283 51.443 A 365.772 365.772 0 0 0 575.5 73.003 Z M 98.5 224.503 L 98.5 381.503 L 144 386.503 A 29.206 29.206 0 0 1 144.835 391.265 Q 145.405 397.252 144.008 404.96 A 75.645 75.645 0 0 1 144 405.003 A 1263.147 1263.147 0 0 0 111.607 403.902 Q 94.507 403.528 75.538 403.505 A 2059.801 2059.801 0 0 0 73 403.503 Q 52.719 403.503 26.529 403.976 A 4354.558 4354.558 0 0 0 1.5 404.503 A 28.343 28.343 0 0 1 0 395.644 Q -0.023 391.091 1.488 386.538 A 31.727 31.727 0 0 1 1.5 386.503 L 43 380.503 Q 44.964 361.848 44.999 323.429 A 1538.344 1538.344 0 0 0 45 322.003 L 45 27.503 L 4.5 22.503 A 29.206 29.206 0 0 1 3.665 17.742 Q 3.094 11.738 4.5 4.003 Q 24.234 4.003 66.441 2.15 A 4253.05 4253.05 0 0 0 69.75 2.003 Q 114.5 0.003 151 0.003 A 314.286 314.286 0 0 1 189.032 2.138 Q 229.918 7.139 253.559 23.863 A 80.712 80.712 0 0 1 261.5 30.253 A 99.12 99.12 0 0 1 291.743 85.269 A 147.304 147.304 0 0 1 294.5 114.503 A 94.397 94.397 0 0 1 262.928 185.556 A 137.405 137.405 0 0 1 251.75 195.003 A 159.234 159.234 0 0 1 166.272 226.861 A 202.548 202.548 0 0 1 150 227.503 Q 119.5 227.503 98.5 224.503 Z M 98.5 87.003 L 98.5 204.003 A 182.811 182.811 0 0 0 108.326 204.97 Q 119.022 205.761 133.958 205.947 A 769.721 769.721 0 0 0 143.5 206.003 Q 168.11 206.003 186.224 198.164 A 78.773 78.773 0 0 0 188.25 197.253 A 76.653 76.653 0 0 0 203.343 188.092 A 58.629 58.629 0 0 0 216.5 173.753 A 113.025 113.025 0 0 0 226.036 155.684 A 94.366 94.366 0 0 0 230 144.003 A 120.049 120.049 0 0 0 233.809 119.345 A 139.154 139.154 0 0 0 234 112.003 A 138.163 138.163 0 0 0 231.631 85.583 Q 228.638 70.232 221.862 58.277 A 72.229 72.229 0 0 0 212 44.753 Q 195.987 27.466 164.344 22.762 A 176.267 176.267 0 0 0 138.5 21.003 Q 120 21.003 101.5 24.503 A 535.821 535.821 0 0 0 99.074 58.306 A 691.977 691.977 0 0 0 98.5 87.003 Z" vector-effect="non-scaling-stroke"/></g></svg>